# Blender 4.3.0
# www.blender.org
mtllib m_hole.mtl
o Circle
v 0.000000 0.000000 -1.000000
v -0.309017 0.000000 -0.951057
v -0.587785 0.000000 -0.809017
v -0.809017 0.000000 -0.587785
v -0.951057 0.000000 -0.309017
v -1.000000 0.000000 0.000000
v -0.951057 0.000000 0.309017
v -0.809017 0.000000 0.587785
v -0.587785 0.000000 0.809017
v -0.309017 0.000000 0.951057
v 0.000000 0.000000 1.000000
v 0.309017 0.000000 0.951057
v 0.587785 0.000000 0.809017
v 0.809017 0.000000 0.587785
v 0.951057 0.000000 0.309017
v 1.000000 0.000000 0.000000
v 0.951057 0.000000 -0.309017
v 0.809017 0.000000 -0.587785
v 0.587785 0.000000 -0.809017
v 0.309017 0.000000 -0.951057
v 0.000000 0.000000 -1.000000
v -0.309017 0.000000 -0.951057
v -0.587785 0.000000 -0.809017
v -0.809017 0.000000 -0.587785
v -0.951057 0.000000 -0.309017
v -1.000000 0.000000 0.000000
v -0.951057 0.000000 0.309017
v -0.809017 0.000000 0.587785
v -0.587785 0.000000 0.809017
v -0.309017 0.000000 0.951057
v 0.000000 0.000000 1.000000
v 0.309017 0.000000 0.951057
v 0.587785 0.000000 0.809017
v 0.809017 0.000000 0.587785
v 0.951057 0.000000 0.309017
v 1.000000 0.000000 0.000000
v 0.951057 0.000000 -0.309017
v 0.809017 0.000000 -0.587785
v 0.587785 0.000000 -0.809017
v 0.309017 0.000000 -0.951057
v 0.000000 0.000000 -9.924865
v -3.066951 0.000000 -9.439107
v -5.833689 0.000000 -8.029384
v -8.029384 0.000000 -5.833689
v -9.439107 0.000000 -3.066952
v -9.924865 0.000000 -0.000000
v -9.439107 0.000000 3.066952
v -8.029384 0.000000 5.833689
v -5.833689 0.000000 8.029384
v -3.066951 0.000000 9.439107
v 0.000000 0.000000 9.924865
v 3.066952 0.000000 9.439107
v 5.833689 0.000000 8.029384
v 8.029384 0.000000 5.833689
v 9.439107 0.000000 3.066952
v 9.924865 0.000000 -0.000000
v 9.439107 0.000000 -3.066952
v 8.029384 0.000000 -5.833689
v 5.833689 0.000000 -8.029384
v 3.066952 0.000000 -9.439107
v 0.000000 -0.869916 -1.000000
v -0.309017 -0.869916 -0.951057
v -0.587785 -0.869916 -0.809017
v -0.809017 -0.869916 -0.587785
v -0.951057 -0.869916 -0.309017
v -1.000000 -0.869916 0.000000
v -0.951057 -0.869916 0.309017
v -0.809017 -0.869916 0.587785
v -0.587785 -0.869916 0.809017
v -0.309017 -0.869916 0.951057
v 0.000000 -0.869916 1.000000
v 0.309017 -0.869916 0.951057
v 0.587785 -0.869916 0.809017
v 0.809017 -0.869916 0.587785
v 0.951057 -0.869916 0.309017
v 1.000000 -0.869916 0.000000
v 0.951057 -0.869916 -0.309017
v 0.809017 -0.869916 -0.587785
v 0.587785 -0.869916 -0.809017
v 0.309017 -0.869916 -0.951057
v 0.000000 -0.869916 -1.000000
v -0.309017 -0.869916 -0.951057
v -0.587785 -0.869916 -0.809017
v -0.809017 -0.869916 -0.587785
v -0.951057 -0.869916 -0.309017
v -1.000000 -0.869916 0.000000
v -0.951057 -0.869916 0.309017
v -0.809017 -0.869916 0.587785
v -0.587785 -0.869916 0.809017
v -0.309017 -0.869916 0.951057
v 0.000000 -0.869916 1.000000
v 0.309017 -0.869916 0.951057
v 0.587785 -0.869916 0.809017
v 0.809017 -0.869916 0.587785
v 0.951057 -0.869916 0.309017
v 1.000000 -0.869916 0.000000
v 0.951057 -0.869916 -0.309017
v 0.809017 -0.869916 -0.587785
v 0.587785 -0.869916 -0.809017
v 0.309017 -0.869916 -0.951057
v 0.000000 -0.869916 -9.924865
v -3.066951 -0.869916 -9.439107
v -5.833689 -0.869916 -8.029384
v -8.029384 -0.869916 -5.833689
v -9.439107 -0.869916 -3.066952
v -9.924865 -0.869916 -0.000000
v -9.439107 -0.869916 3.066952
v -8.029384 -0.869916 5.833689
v -5.833689 -0.869916 8.029384
v -3.066951 -0.869916 9.439107
v 0.000000 -0.869916 9.924865
v 3.066952 -0.869916 9.439107
v 5.833689 -0.869916 8.029384
v 8.029384 -0.869916 5.833689
v 9.439107 -0.869916 3.066952
v 9.924865 -0.869916 -0.000000
v 9.439107 -0.869916 -3.066952
v 8.029384 -0.869916 -5.833689
v 5.833689 -0.869916 -8.029384
v 3.066952 -0.869916 -9.439107
vn -0.0000 1.0000 -0.0000
vn -0.0000 -1.0000 -0.0000
vn -0.1564 -0.0000 0.9877
vn 0.8910 -0.0000 0.4540
vn 0.8910 -0.0000 -0.4540
vn -0.1564 -0.0000 -0.9877
vn 0.9877 -0.0000 0.1564
vn 0.7071 -0.0000 -0.7071
vn -0.4540 -0.0000 -0.8910
vn 0.9877 -0.0000 -0.1564
vn 0.4540 -0.0000 -0.8910
vn -0.7071 -0.0000 -0.7071
vn 0.1564 -0.0000 -0.9877
vn -0.8910 -0.0000 -0.4540
vn -0.9877 -0.0000 -0.1564
vn -0.9877 -0.0000 0.1564
vn -0.8910 -0.0000 0.4540
vn -0.7071 -0.0000 0.7071
vn 0.1564 -0.0000 0.9877
vn -0.4540 -0.0000 0.8910
vn 0.4540 -0.0000 0.8910
vn 0.7071 -0.0000 0.7071
vt 0.000000 0.000000
s 0
f 2/1/1 1/1/1 21/1/1 22/1/1
f 17/1/1 16/1/1 36/1/1 37/1/1
f 10/1/1 9/1/1 29/1/1 30/1/1
f 3/1/1 2/1/1 22/1/1 23/1/1
f 18/1/1 17/1/1 37/1/1 38/1/1
f 11/1/1 10/1/1 30/1/1 31/1/1
f 4/1/1 3/1/1 23/1/1 24/1/1
f 19/1/1 18/1/1 38/1/1 39/1/1
f 12/1/1 11/1/1 31/1/1 32/1/1
f 5/1/1 4/1/1 24/1/1 25/1/1
f 20/1/1 19/1/1 39/1/1 40/1/1
f 13/1/1 12/1/1 32/1/1 33/1/1
f 6/1/1 5/1/1 25/1/1 26/1/1
f 1/1/1 20/1/1 40/1/1 21/1/1
f 14/1/1 13/1/1 33/1/1 34/1/1
f 7/1/1 6/1/1 26/1/1 27/1/1
f 15/1/1 14/1/1 34/1/1 35/1/1
f 8/1/1 7/1/1 27/1/1 28/1/1
f 16/1/1 15/1/1 35/1/1 36/1/1
f 9/1/1 8/1/1 28/1/1 29/1/1
f 24/1/1 23/1/1 43/1/1 44/1/1
f 39/1/1 38/1/1 58/1/1 59/1/1
f 32/1/1 31/1/1 51/1/1 52/1/1
f 25/1/1 24/1/1 44/1/1 45/1/1
f 40/1/1 39/1/1 59/1/1 60/1/1
f 33/1/1 32/1/1 52/1/1 53/1/1
f 26/1/1 25/1/1 45/1/1 46/1/1
f 21/1/1 40/1/1 60/1/1 41/1/1
f 34/1/1 33/1/1 53/1/1 54/1/1
f 27/1/1 26/1/1 46/1/1 47/1/1
f 35/1/1 34/1/1 54/1/1 55/1/1
f 28/1/1 27/1/1 47/1/1 48/1/1
f 36/1/1 35/1/1 55/1/1 56/1/1
f 29/1/1 28/1/1 48/1/1 49/1/1
f 22/1/1 21/1/1 41/1/1 42/1/1
f 37/1/1 36/1/1 56/1/1 57/1/1
f 30/1/1 29/1/1 49/1/1 50/1/1
f 23/1/1 22/1/1 42/1/1 43/1/1
f 38/1/1 37/1/1 57/1/1 58/1/1
f 31/1/1 30/1/1 50/1/1 51/1/1
f 62/1/1 82/1/1 81/1/1 61/1/1
f 77/1/1 97/1/1 96/1/1 76/1/1
f 70/1/1 90/1/1 89/1/1 69/1/1
f 63/1/1 83/1/1 82/1/1 62/1/1
f 78/1/1 98/1/1 97/1/1 77/1/1
f 71/1/1 91/1/1 90/1/1 70/1/1
f 64/1/1 84/1/1 83/1/1 63/1/1
f 79/1/1 99/1/1 98/1/1 78/1/1
f 72/1/1 92/1/1 91/1/1 71/1/1
f 65/1/1 85/1/1 84/1/1 64/1/1
f 80/1/1 100/1/1 99/1/1 79/1/1
f 73/1/1 93/1/1 92/1/1 72/1/1
f 66/1/1 86/1/1 85/1/1 65/1/1
f 61/1/1 81/1/1 100/1/1 80/1/1
f 74/1/1 94/1/1 93/1/1 73/1/1
f 67/1/1 87/1/1 86/1/1 66/1/1
f 75/1/1 95/1/1 94/1/1 74/1/1
f 68/1/1 88/1/1 87/1/1 67/1/1
f 76/1/1 96/1/1 95/1/1 75/1/1
f 69/1/1 89/1/1 88/1/1 68/1/1
f 84/1/2 104/1/2 103/1/2 83/1/2
f 99/1/2 119/1/2 118/1/2 98/1/2
f 92/1/2 112/1/2 111/1/2 91/1/2
f 85/1/2 105/1/2 104/1/2 84/1/2
f 100/1/2 120/1/2 119/1/2 99/1/2
f 93/1/2 113/1/2 112/1/2 92/1/2
f 86/1/2 106/1/2 105/1/2 85/1/2
f 81/1/2 101/1/2 120/1/2 100/1/2
f 94/1/2 114/1/2 113/1/2 93/1/2
f 87/1/2 107/1/2 106/1/2 86/1/2
f 95/1/2 115/1/2 114/1/2 94/1/2
f 88/1/2 108/1/2 107/1/2 87/1/2
f 96/1/2 116/1/2 115/1/2 95/1/2
f 89/1/2 109/1/2 108/1/2 88/1/2
f 82/1/2 102/1/2 101/1/2 81/1/2
f 97/1/2 117/1/2 116/1/2 96/1/2
f 90/1/2 110/1/2 109/1/2 89/1/2
f 83/1/2 103/1/2 102/1/2 82/1/2
f 98/1/2 118/1/2 117/1/2 97/1/2
f 91/1/2 111/1/2 110/1/2 90/1/2
f 1/1/3 61/1/3 80/1/3 20/1/3
f 54/1/4 114/1/4 115/1/4 55/1/4
f 8/1/5 68/1/5 67/1/5 7/1/5
f 41/1/6 101/1/6 102/1/6 42/1/6
f 55/1/7 115/1/7 116/1/7 56/1/7
f 9/1/8 69/1/8 68/1/8 8/1/8
f 42/1/9 102/1/9 103/1/9 43/1/9
f 56/1/10 116/1/10 117/1/10 57/1/10
f 10/1/11 70/1/11 69/1/11 9/1/11
f 43/1/12 103/1/12 104/1/12 44/1/12
f 57/1/5 117/1/5 118/1/5 58/1/5
f 11/1/13 71/1/13 70/1/13 10/1/13
f 44/1/14 104/1/14 105/1/14 45/1/14
f 58/1/8 118/1/8 119/1/8 59/1/8
f 12/1/6 72/1/6 71/1/6 11/1/6
f 45/1/15 105/1/15 106/1/15 46/1/15
f 59/1/11 119/1/11 120/1/11 60/1/11
f 13/1/9 73/1/9 72/1/9 12/1/9
f 46/1/16 106/1/16 107/1/16 47/1/16
f 60/1/13 120/1/13 101/1/13 41/1/13
f 14/1/12 74/1/12 73/1/12 13/1/12
f 47/1/17 107/1/17 108/1/17 48/1/17
f 15/1/14 75/1/14 74/1/14 14/1/14
f 48/1/18 108/1/18 109/1/18 49/1/18
f 2/1/19 62/1/19 61/1/19 1/1/19
f 16/1/15 76/1/15 75/1/15 15/1/15
f 49/1/20 109/1/20 110/1/20 50/1/20
f 3/1/21 63/1/21 62/1/21 2/1/21
f 17/1/16 77/1/16 76/1/16 16/1/16
f 50/1/3 110/1/3 111/1/3 51/1/3
f 4/1/22 64/1/22 63/1/22 3/1/22
f 18/1/17 78/1/17 77/1/17 17/1/17
f 51/1/19 111/1/19 112/1/19 52/1/19
f 5/1/4 65/1/4 64/1/4 4/1/4
f 19/1/18 79/1/18 78/1/18 18/1/18
f 52/1/21 112/1/21 113/1/21 53/1/21
f 6/1/7 66/1/7 65/1/7 5/1/7
f 20/1/20 80/1/20 79/1/20 19/1/20
f 53/1/22 113/1/22 114/1/22 54/1/22
f 7/1/10 67/1/10 66/1/10 6/1/10
